<svg width="28" height="32" viewBox="0 0 28 32" fill="none" xmlns="http://www.w3.org/2000/svg">
<path d="M7.62451 1.5C7.62451 1.10218 7.77764 0.720645 8.05022 0.439341C8.32279 0.158036 8.69248 -3.36997e-08 9.07796 0L22.78 1.19787e-06C24.0644 0.00149013 25.2959 0.528752 26.2042 1.46611C27.1124 2.40347 27.6233 3.67438 27.6248 5L27.6248 27C27.6233 28.3256 27.1124 29.5965 26.2042 30.5339C25.2959 31.4713 24.0644 31.9985 22.7799 32H9.07796C8.69248 32 8.32279 31.842 8.05022 31.5607C7.77764 31.2794 7.62451 30.8978 7.62451 30.5C7.62451 30.1022 7.77764 29.7206 8.05022 29.4393C8.32279 29.158 8.69248 29 9.07796 29L22.7799 29C23.2937 28.9994 23.7863 28.7885 24.1497 28.4136C24.513 28.0386 24.7173 27.5303 24.7179 27L24.7179 5C24.7173 4.46974 24.513 3.96136 24.1497 3.58641C23.7864 3.21146 23.2938 3.00056 22.78 3L9.07796 3C8.69248 3 8.32279 2.84196 8.05022 2.56066C7.77764 2.27935 7.62451 1.89782 7.62451 1.5Z" fill="#085DDC"/>
<path d="M11.1502 7.82035L18.0571 14.9486C18.3297 15.2299 18.4829 15.6114 18.4829 16.0093C18.4829 16.4071 18.3297 16.7886 18.0571 17.0699L11.1502 24.198C11.0153 24.338 10.8551 24.449 10.6786 24.5249C10.5021 24.6008 10.3128 24.64 10.1216 24.6403C9.93041 24.6405 9.74103 24.6019 9.56433 24.5265C9.38764 24.4511 9.22709 24.3405 9.09189 24.2009C8.95669 24.0614 8.84949 23.8957 8.77644 23.7134C8.70339 23.531 8.66592 23.3356 8.66618 23.1382C8.66644 22.9409 8.70442 22.7456 8.77796 22.5634C8.85149 22.3813 8.95912 22.2159 9.09469 22.0767L13.5204 17.5092L2.07845 17.5092C1.69297 17.5092 1.32328 17.3512 1.05071 17.0699C0.778131 16.7886 0.625 16.4071 0.625 16.0092C0.625 15.6114 0.778131 15.2299 1.05071 14.9486C1.32328 14.6673 1.69297 14.5092 2.07845 14.5092L13.5205 14.5092L9.09493 9.94167C8.95747 9.80297 8.84804 9.63751 8.77298 9.45486C8.69791 9.27222 8.6587 9.07602 8.65761 8.87762C8.65653 8.67923 8.69359 8.48259 8.76665 8.29908C8.83971 8.11557 8.94731 7.94884 9.08324 7.80855C9.21916 7.66825 9.38071 7.55718 9.55851 7.48176C9.73632 7.40634 9.92686 7.36807 10.1191 7.36917C10.3113 7.37026 10.5014 7.41071 10.6784 7.48816C10.8554 7.5656 11.0158 7.67852 11.1502 7.82035Z" fill="#085DDC"/>
</svg>
