<svg width="28" height="32" viewBox="0 0 28 32" fill="none" xmlns="http://www.w3.org/2000/svg">
<path d="M20.6253 30.5C20.6253 30.8978 20.4721 31.2794 20.1996 31.5607C19.927 31.842 19.5573 32 19.1718 32H5.46984C4.18535 31.9985 2.95388 31.4712 2.04561 30.5339C1.13734 29.5965 0.626443 28.3256 0.625 27V5C0.626443 3.67437 1.13734 2.40347 2.04561 1.46611C2.95388 0.528751 4.18535 0.00148882 5.46984 0L19.1718 0C19.5573 0 19.927 0.158035 20.1996 0.43934C20.4721 0.720644 20.6253 1.10218 20.6253 1.5C20.6253 1.89782 20.4721 2.27936 20.1996 2.56066C19.927 2.84196 19.5573 3 19.1718 3H5.46984C4.95604 3.00058 4.46344 3.21148 4.10013 3.58643C3.73682 3.96137 3.53246 4.46974 3.5319 5V27C3.53245 27.5303 3.7368 28.0386 4.10011 28.4136C4.46343 28.7885 4.95603 28.9994 5.46984 29H19.1718C19.5573 29 19.927 29.158 20.1996 29.4393C20.4721 29.7206 20.6253 30.1022 20.6253 30.5ZM27.1993 14.9394L20.2923 7.81112C20.1579 7.66929 19.9976 7.55637 19.8206 7.47893C19.6436 7.40148 19.4535 7.36103 19.2612 7.35994C19.069 7.35884 18.8785 7.39711 18.7007 7.47253C18.5229 7.54795 18.3613 7.65902 18.2254 7.79931C18.0895 7.93961 17.9819 8.10634 17.9088 8.28985C17.8357 8.47336 17.7987 8.67 17.7998 8.86839C17.8008 9.06679 17.8401 9.26299 17.9151 9.44563C17.9902 9.62827 18.0996 9.79374 18.2371 9.93244L22.6627 14.5H11.2206C10.8351 14.5 10.4654 14.658 10.1929 14.9393C9.92028 15.2206 9.76715 15.6022 9.76715 16C9.76715 16.3978 9.92028 16.7794 10.1929 17.0607C10.4654 17.342 10.8351 17.5 11.2206 17.5H22.6626L18.2368 22.0675C18.1013 22.2066 17.9936 22.372 17.9201 22.5542C17.8466 22.7363 17.8086 22.9317 17.8083 23.129C17.8081 23.3263 17.8455 23.5218 17.9186 23.7041C17.9916 23.8865 18.0988 24.0522 18.234 24.1917C18.3692 24.3312 18.5298 24.4419 18.7065 24.5173C18.8832 24.5926 19.0726 24.6313 19.2638 24.631C19.455 24.6308 19.6442 24.5916 19.8207 24.5157C19.9972 24.4398 20.1575 24.3287 20.2923 24.1888L27.1993 17.0607C27.4719 16.7794 27.625 16.3979 27.625 16C27.625 15.6022 27.4719 15.2207 27.1993 14.9394Z" fill="#085DDC"/>
</svg>
