<svg width="29" height="28" viewBox="0 0 29 28" fill="none" xmlns="http://www.w3.org/2000/svg">
<path fill-rule="evenodd" clip-rule="evenodd" d="M27.9873 2.84129C28.075 3.38656 27.7041 3.89971 27.1589 3.98745L25.3637 4.2763L19.9523 14.0329L21.3788 17.0002H23.1538C25.3359 17.0002 27.0385 18.8283 27.0385 21.0002C27.0385 23.172 25.3359 25.0001 23.1538 25.0001C20.9718 25.0001 19.2692 23.172 19.2692 21.0002C19.2692 20.2772 19.4579 19.5922 19.7902 19.0002H14.9791C15.3113 19.5922 15.5 20.2772 15.5 21.0002C15.5 23.172 13.7974 25.0001 11.6154 25.0001C9.43337 25.0001 7.73077 23.172 7.73077 21.0002C7.73077 18.8283 9.43337 17.0002 11.6154 17.0002H19.1597L18.1981 15.0001H7.83417C7.48307 15.0226 7.13065 14.8588 6.92736 14.5416L1.15807 5.53977C0.960821 5.23199 0.947227 4.84111 1.12262 4.52038C1.29801 4.19964 1.63444 4.00017 2 4.00017H23.2298L23.8505 2.88117C23.9993 2.61282 24.2631 2.42766 24.5661 2.37891L26.8411 2.01285C27.3864 1.92511 27.8996 2.29602 27.9873 2.84129ZM22.1205 6.00017H3.82865L8.31491 13.0001H18.2381L22.1205 6.00017ZM23.1538 19.0002C22.1496 19.0002 21.2692 19.8583 21.2692 21.0002C21.2692 22.142 22.1496 23.0001 23.1538 23.0001C24.1581 23.0001 25.0385 22.142 25.0385 21.0002C25.0385 19.8583 24.1581 19.0002 23.1538 19.0002ZM11.6154 19.0002C10.6111 19.0002 9.73077 19.8583 9.73077 21.0002C9.73077 22.142 10.6111 23.0001 11.6154 23.0001C12.6196 23.0001 13.5 22.142 13.5 21.0002C13.5 19.8583 12.6196 19.0002 11.6154 19.0002Z" fill="#5A5A5A"/>
</svg>
