<svg width="44" height="44" viewBox="0 0 44 44" fill="none" xmlns="http://www.w3.org/2000/svg">
<path d="M43.0822 11.9292C42.8398 11.0508 42.356 10.2477 41.6793 9.60033C41.0024 8.953 40.1565 8.48423 39.2261 8.24102C35.7833 7.33513 21.9887 7.33513 21.9887 7.33513C16.2368 7.27018 10.4864 7.55836 4.77438 8.19788C3.84369 8.45886 2.99912 8.93842 2.32042 9.59131C1.64173 10.2442 1.15129 11.0488 0.895403 11.9292C0.278294 15.255 -0.02128 18.626 0.00025469 22.0017C-0.0227568 25.3776 0.276829 28.7488 0.895403 32.0744C1.14603 32.9524 1.63541 33.7541 2.31549 34.4009C2.99557 35.0475 3.84293 35.5167 4.77438 35.7625C8.26317 36.6684 21.9887 36.6684 21.9887 36.6684C27.7483 36.7335 33.5065 36.4453 39.2261 35.8056C40.1565 35.5625 41.0024 35.0937 41.6793 34.4464C42.356 33.799 42.8398 32.9959 43.0822 32.1175C43.715 28.7933 44.0223 25.4218 44.0003 22.045C44.0478 18.653 43.7401 15.2647 43.0822 11.9292ZM17.6049 28.2783V15.7253L29.0812 22.0017L17.6049 28.2783Z" fill="#085DDC"/>
</svg>
