<svg width="36" height="31" viewBox="0 0 36 31" fill="none" xmlns="http://www.w3.org/2000/svg">
<path d="M18.2398 0.102564C17.3945 0.326851 16.4008 0.909997 15.7779 1.55295C15.6296 1.71743 15.4368 1.852 15.3775 1.852C15.3182 1.852 13.8351 1.46324 12.1147 0.999712C8.82222 0.102564 8.3328 0.0278021 7.78406 0.267041C7.05734 0.581043 6.52343 1.38848 6.52343 2.19591C6.52343 2.94353 6.86454 3.58649 7.45778 3.94535C7.68024 4.07992 9.00019 4.46868 11.0765 5.03687C12.8711 5.53031 14.3541 5.93402 14.369 5.93402C14.3838 5.94897 14.4728 6.23307 14.5618 6.56203C14.8287 7.47412 15.1847 8.07222 15.8521 8.76004C16.7568 9.68709 17.6318 10.1357 18.9072 10.2852C20.4497 10.4796 21.9327 9.95623 23.134 8.81985L23.5641 8.40118L26.9159 9.31328C28.7698 9.80671 30.3567 10.2104 30.4457 10.2104C30.8313 10.2104 31.4394 9.95623 31.7953 9.64223C32.9224 8.62546 32.5962 6.74146 31.1872 6.20317C30.9944 6.1284 29.452 5.69478 27.7465 5.23126C25.8184 4.70792 24.632 4.34906 24.5875 4.28925C24.5578 4.22944 24.454 3.91544 24.365 3.60144C23.9201 2.09124 22.7336 0.850187 21.1615 0.252089C20.4941 -0.0170554 18.9962 -0.0768652 18.2398 0.102564ZM20.0047 3.51172C20.3013 3.60144 20.509 3.73601 20.7314 3.97525C21.5175 4.84249 21.2802 6.14336 20.242 6.66669C19.545 7.0106 18.8479 6.89098 18.2992 6.33774C17.7504 5.7845 17.6466 5.06678 17.9877 4.36401C18.2102 3.91544 18.5068 3.66125 18.9814 3.48182C19.367 3.3622 19.5153 3.3622 20.0047 3.51172Z" fill="#085DDC"/>
<path d="M7.20782 6.21812C6.9112 6.35269 6.7629 6.54707 5.79889 8.10213C5.19082 9.05909 3.6484 11.5113 2.35811 13.5747L0 17.2979L0.0444928 18.3595C0.0889855 19.6604 0.281787 20.408 0.830531 21.5294C1.80937 23.5331 3.6484 25.0582 5.78406 25.6264C6.59976 25.8507 8.06802 25.9255 8.88372 25.7909C12.3986 25.2376 15.0682 22.3817 15.4241 18.7632C15.4835 18.1352 15.4835 17.7465 15.439 17.4923C15.3797 17.253 14.3415 15.5185 12.0724 11.9001C10.2482 9.02918 8.69091 6.59193 8.5871 6.48726C8.3943 6.26298 7.97903 6.06859 7.71207 6.06859C7.62309 6.06859 7.38579 6.14336 7.20782 6.21812ZM10.2778 13.5897C11.6423 15.7428 12.7249 17.5371 12.7101 17.5521C12.6953 17.567 10.441 17.582 7.69724 17.567L2.69923 17.5371L5.19082 13.5598C6.57009 11.3618 7.71207 9.59737 7.75657 9.62728C7.78623 9.65718 8.91338 11.4515 10.2778 13.5897Z" fill="#085DDC"/>
<path d="M27.7698 11.4216C27.5918 11.5113 27.3545 11.7206 27.2507 11.8851C26.8206 12.558 20.9327 22.0229 20.7548 22.3219C20.6065 22.5911 20.5768 22.7555 20.5768 23.3088C20.5768 24.0863 20.7399 25.0283 21.0069 25.8208C21.8374 28.2879 23.9583 30.1869 26.5833 30.8598C27.3249 31.0541 29.2529 31.0392 30.0093 30.8598C33.4352 29.9925 35.7933 27.1216 35.9861 23.5779C36.0158 22.92 36.0009 22.6658 35.912 22.4415C35.7637 22.0976 29.4902 12.0795 29.1936 11.7206C28.9711 11.4664 28.5855 11.2571 28.2889 11.2571C28.1702 11.2571 27.9478 11.3319 27.7698 11.4216ZM30.8101 18.7483C32.1597 20.9014 33.2721 22.6957 33.2721 22.7256C33.2721 22.7555 31.0474 22.7854 28.3185 22.7854C24.1955 22.7854 23.365 22.7705 23.3947 22.6658C23.4392 22.5013 28.2147 14.8307 28.2889 14.8307C28.3185 14.8307 29.4605 16.5951 30.8101 18.7483Z" fill="#085DDC"/>
</svg>
