<svg width="29" height="28" viewBox="0 0 29 28" fill="none" xmlns="http://www.w3.org/2000/svg">
<path d="M1 8.68305C1 8.32943 1.1293 7.99029 1.35946 7.74024C1.58962 7.49019 1.90178 7.34972 2.22727 7.34972H11.5374L8.72323 4.29238C8.60601 4.16939 8.51251 4.02226 8.44819 3.85959C8.38387 3.69692 8.35002 3.52196 8.3486 3.34492C8.34719 3.16788 8.37824 2.99231 8.43995 2.82845C8.50165 2.66458 8.59278 2.51571 8.70802 2.39052C8.82325 2.26533 8.96027 2.16633 9.1111 2.09929C9.26193 2.03225 9.42354 1.99851 9.58649 2.00005C9.74945 2.00159 9.91049 2.03837 10.0602 2.10825C10.21 2.17813 10.3454 2.2797 10.4586 2.40705L15.3677 7.74038C15.5978 7.99042 15.727 8.3295 15.727 8.68305C15.727 9.0366 15.5978 9.37568 15.3677 9.62572L10.4586 14.9591C10.3454 15.0864 10.21 15.188 10.0602 15.2579C9.91049 15.3277 9.74945 15.3645 9.58649 15.3661C9.42354 15.3676 9.26193 15.3339 9.1111 15.2668C8.96027 15.1998 8.82325 15.1008 8.70802 14.9756C8.59278 14.8504 8.50165 14.7015 8.43995 14.5377C8.37824 14.3738 8.34719 14.1982 8.3486 14.0212C8.35002 13.8441 8.38387 13.6692 8.44819 13.5065C8.51251 13.3438 8.60601 13.1967 8.72323 13.0737L11.5374 10.0164H2.22727C1.90178 10.0164 1.58962 9.87591 1.35946 9.62586C1.1293 9.37581 1 9.03667 1 8.68305ZM26.7727 18.0164H17.4626L20.2768 14.9591C20.5003 14.7076 20.624 14.3708 20.6212 14.0212C20.6184 13.6716 20.4894 13.3372 20.2618 13.09C20.0343 12.8427 19.7265 12.7025 19.4047 12.6995C19.0829 12.6964 18.7729 12.8308 18.5414 13.0737L13.6323 18.4071C13.4022 18.6571 13.273 18.9962 13.273 19.3497C13.273 19.7033 13.4022 20.0423 13.6323 20.2924L18.5414 25.6257C18.7729 25.8686 19.0829 26.003 19.4047 26C19.7265 25.9969 20.0343 25.8567 20.2618 25.6095C20.4894 25.3623 20.6184 25.0278 20.6212 24.6783C20.624 24.3287 20.5003 23.9919 20.2768 23.7404L17.4626 20.6831H26.7727C27.0982 20.6831 27.4104 20.5426 27.6405 20.2925C27.8707 20.0425 28 19.7033 28 19.3497C28 18.9961 27.8707 18.657 27.6405 18.4069C27.4104 18.1569 27.0982 18.0164 26.7727 18.0164Z" fill="#5A5A5A"/>
</svg>
