<svg width="28" height="28" viewBox="0 0 28 28" fill="none" xmlns="http://www.w3.org/2000/svg">
<path fill-rule="evenodd" clip-rule="evenodd" d="M9.78713 2.57018C9.93989 2.22375 10.2842 2 10.6645 2H17.229C17.5944 2 17.9279 2.20664 18.0889 2.53279L19.8129 6.02353H25V7.92941H23.0484V22.9294C23.0484 24.6253 21.6662 26 19.9613 26H8.03871C6.33375 26 4.95161 24.6253 4.95161 22.9294V7.92941H3V6.02353H8.26436L9.78713 2.57018ZM10.3567 6.02353H17.6781L16.6322 3.90588H11.2905L10.3567 6.02353ZM6.86774 7.92941V22.9294C6.86774 23.5727 7.392 24.0941 8.03871 24.0941H19.9613C20.608 24.0941 21.1323 23.5727 21.1323 22.9294V7.92941H6.86774ZM9.10323 20.9529V11.0706H11.0194V20.9529H9.10323ZM13.0774 20.9529V11.0706H14.9935V20.9529H13.0774ZM17.1226 20.9529V11.0706H19.0387V20.9529H17.1226Z" fill="black"/>
</svg>
