<svg width="148" height="41" viewBox="0 0 148 41" fill="none" xmlns="http://www.w3.org/2000/svg">
<path d="M2 35.5L146 35.5" stroke="#085DDC" stroke-width="2"/>
<path d="M6.48438 31.2344L2.21875 30.8281L3.98438 10.9375H9.03125L13.8594 23.2344L11.6406 23.25L16.4688 10.9375H21.5312L23.2969 30.8281L19.0312 31.2344L17.7031 13.1562L18.9531 13.2031L14.4844 25H11.0156L6.45312 13.25L7.8125 13.1875L6.48438 31.2344Z" fill="#777777"/>
<path d="M26.4844 31V27.6562H29.6875V18.6406H26.625V15.2969H33.7812V27.6562H37V31H26.4844ZM31.6719 13.375C30.9531 13.375 30.3333 13.1198 29.8125 12.6094C29.3021 12.0885 29.0469 11.4583 29.0469 10.7188C29.0469 10 29.3021 9.38542 29.8125 8.875C30.3333 8.36458 30.9531 8.10938 31.6719 8.10938C32.401 8.10938 33.0208 8.36458 33.5312 8.875C34.0521 9.38542 34.3125 10 34.3125 10.7188C34.3125 11.4583 34.0521 12.0885 33.5312 12.6094C33.0208 13.1198 32.401 13.375 31.6719 13.375Z" fill="#777777"/>
<path d="M39.625 31V15.2969H43.1094L43.5 16.2969C44.4167 15.8281 45.2135 15.5052 45.8906 15.3281C46.5677 15.151 47.3125 15.0625 48.125 15.0625C49.0833 15.0625 49.9375 15.2656 50.6875 15.6719C51.4479 16.0677 52.0417 16.6771 52.4688 17.5C52.9062 18.3125 53.125 19.3594 53.125 20.6406V31H49.0312V21.4531C49.0312 20.401 48.8802 19.6615 48.5781 19.2344C48.276 18.7969 47.7083 18.5781 46.875 18.5781C46.2292 18.5781 45.5677 18.7031 44.8906 18.9531C44.2135 19.1927 43.5729 19.5365 42.9688 19.9844L43.7188 17.4688V31H39.625Z" fill="#777777"/>
<path d="M61.8125 31.2031C60.9479 31.2031 59.9844 31.0938 58.9219 30.875C57.8698 30.6562 56.8281 30.2708 55.7969 29.7188L56.9375 26.6406C57.7917 27.0885 58.6615 27.4219 59.5469 27.6406C60.4323 27.849 61.2031 27.9531 61.8594 27.9531C62.5781 27.9531 63.1562 27.8385 63.5938 27.6094C64.0417 27.3802 64.2656 26.9792 64.2656 26.4062C64.2656 26.0417 64.1667 25.75 63.9688 25.5312C63.7812 25.3021 63.4583 25.125 63 25L59.8125 24.1875C58.7812 23.9062 57.9062 23.4167 57.1875 22.7188C56.4688 22.0208 56.1094 21.0625 56.1094 19.8438C56.1094 18.8021 56.3646 17.9271 56.875 17.2188C57.3854 16.5104 58.1094 15.974 59.0469 15.6094C59.9844 15.2448 61.0938 15.0625 62.375 15.0625C63.1458 15.0625 63.9844 15.151 64.8906 15.3281C65.7969 15.5052 66.6458 15.7812 67.4375 16.1562L66.2656 19.1719C65.526 18.8594 64.7917 18.6354 64.0625 18.5C63.3333 18.3646 62.6823 18.2969 62.1094 18.2969C61.401 18.2969 60.849 18.4167 60.4531 18.6562C60.0677 18.8854 59.875 19.2344 59.875 19.7031C59.875 20.0885 59.9948 20.3698 60.2344 20.5469C60.4844 20.724 60.8802 20.8906 61.4219 21.0469L64.1406 21.75C64.8802 21.9375 65.5417 22.2083 66.125 22.5625C66.7188 22.9167 67.1823 23.3906 67.5156 23.9844C67.8594 24.5781 68.0312 25.3333 68.0312 26.25C68.0312 27.3021 67.7865 28.2031 67.2969 28.9531C66.8177 29.6927 66.1146 30.2552 65.1875 30.6406C64.2708 31.0156 63.1458 31.2031 61.8125 31.2031Z" fill="#777777"/>
<path d="M81.2969 31.4375C80.5365 30.5625 79.8333 29.7396 79.1875 28.9688C78.5521 28.1979 77.9323 27.4375 77.3281 26.6875C76.7344 25.9271 76.125 25.1354 75.5 24.3125L76.8281 24.4219L73.2031 26.9375L74.7812 24.3594V31H70.6875V9.78125H74.7812V22.9844H73.9688L76.1094 20.8281L80.75 15.1406L84.8438 16.3438L78.2031 23.9688L78.375 21.5156C79.4062 22.8594 80.5 24.2292 81.6562 25.625C82.8125 27.0104 84.0417 28.4323 85.3438 29.8906L81.2969 31.4375Z" fill="#777777"/>
<path d="M91.0781 31V11.8906L92.8281 14.4688H85.7031V10.9375H100.656V14.4688H93.4219L95.2812 11.8906V31H91.0781Z" fill="#777777"/>
<path d="M108.297 31.2031C105.922 31.2031 104.109 30.5312 102.859 29.1875C101.609 27.8438 100.984 25.8385 100.984 23.1719C100.984 21.6615 101.172 20.3906 101.547 19.3594C101.922 18.3177 102.438 17.4844 103.094 16.8594C103.76 16.224 104.521 15.7656 105.375 15.4844C106.24 15.2031 107.151 15.0625 108.109 15.0625C109.359 15.0625 110.458 15.3229 111.406 15.8438C112.365 16.3646 113.109 17.1302 113.641 18.1406C114.182 19.1406 114.453 20.375 114.453 21.8438C114.453 22.1042 114.443 22.4896 114.422 23C114.411 23.5104 114.375 23.9948 114.312 24.4531H103.641L105.078 23.4062C105.057 24.5312 105.177 25.4219 105.438 26.0781C105.698 26.724 106.078 27.1875 106.578 27.4688C107.089 27.7396 107.703 27.875 108.422 27.875C109.203 27.875 109.917 27.7812 110.562 27.5938C111.219 27.3958 111.964 27.1094 112.797 26.7344L114.125 29.7031C113.271 30.1927 112.323 30.5677 111.281 30.8281C110.25 31.0781 109.255 31.2031 108.297 31.2031ZM110.547 23.75V22.1719C110.641 20.8698 110.469 19.8646 110.031 19.1562C109.594 18.4375 108.911 18.0781 107.984 18.0781C106.922 18.0781 106.146 18.4896 105.656 19.3125C105.167 20.125 104.974 21.3333 105.078 22.9375L103.641 21.875H111.719L110.547 23.75Z" fill="#777777"/>
<path d="M124.203 31.2031C121.901 31.2031 120.125 30.5312 118.875 29.1875C117.635 27.8333 117.016 25.8438 117.016 23.2188C117.016 20.4479 117.615 18.3958 118.812 17.0625C120.021 15.7292 121.797 15.0625 124.141 15.0625C125.932 15.0625 127.542 15.4792 128.969 16.3125V21.3906L125.484 21.75V16.5156L127.375 19.5C126.927 19.1979 126.401 18.9427 125.797 18.7344C125.203 18.526 124.646 18.4219 124.125 18.4219C123.406 18.4219 122.823 18.5885 122.375 18.9219C121.938 19.2448 121.615 19.7552 121.406 20.4531C121.208 21.151 121.109 22.0729 121.109 23.2188C121.109 24.8438 121.359 26.0208 121.859 26.75C122.37 27.4792 123.198 27.8438 124.344 27.8438C124.969 27.8438 125.583 27.75 126.188 27.5625C126.792 27.3646 127.51 27.0729 128.344 26.6875L129.672 29.7031C128.818 30.1927 127.906 30.5677 126.938 30.8281C125.969 31.0781 125.057 31.2031 124.203 31.2031Z" fill="#777777"/>
<path d="M132.312 31V9.78125H136.406V16.1875C137.271 15.7604 138.026 15.4688 138.672 15.3125C139.328 15.1458 140.042 15.0625 140.812 15.0625C141.771 15.0625 142.625 15.2656 143.375 15.6719C144.135 16.0677 144.729 16.6771 145.156 17.5C145.594 18.3125 145.812 19.3594 145.812 20.6406V31H141.719V21.4531C141.719 20.401 141.568 19.6615 141.266 19.2344C140.964 18.7969 140.396 18.5781 139.562 18.5781C138.917 18.5781 138.255 18.7031 137.578 18.9531C136.901 19.1927 136.26 19.5365 135.656 19.9844L136.406 17.4688V31H132.312Z" fill="#777777"/>
</svg>
