<svg width="29" height="28" viewBox="0 0 29 28" fill="none" xmlns="http://www.w3.org/2000/svg">
<path fill-rule="evenodd" clip-rule="evenodd" d="M19.6211 6.61708C16.03 3.02507 10.2077 3.02507 6.61658 6.61708C3.02529 10.2092 3.02529 16.0334 6.61658 19.6255C10.2077 23.2175 16.03 23.2175 19.6211 19.6255C23.2124 16.0334 23.2124 10.2092 19.6211 6.61708ZM5.25655 5.25744C9.59876 0.914186 16.639 0.914186 20.9812 5.25744C25.0933 9.37059 25.3111 15.9039 21.6344 20.2733L26.7185 25.3586C27.0939 25.7342 27.0938 26.343 26.7183 26.7185C26.3427 27.0939 25.7339 27.0938 25.3584 26.7183L20.2752 21.6338C15.9066 25.3164 9.37061 25.1002 5.25655 20.9852C0.914483 16.642 0.914483 9.60056 5.25655 5.25744Z" fill="#085DDC"/></svg>
