<svg width="26" height="26" viewBox="0 0 26 26" fill="none" xmlns="http://www.w3.org/2000/svg"><path d="M23.0724 4.41499L20.9179 2.29734C20.5145 1.90089 19.8605 1.90089 19.4572 2.29734L18.6173 3.12287L22.2325 6.67621L23.0724 5.85069C23.4758 5.45423 23.4758 4.81145 23.0724 4.41499Z" fill="#BBBBBB"/><path d="M6.20143 18.9155L11.4234 17.3004L7.80818 13.747L6.20143 18.9155Z" fill="#BBBBBB"/><path d="M17.9235 3.80482L21.5387 7.35817L12.1172 16.6184L8.50201 13.0651L17.9235 3.80482Z" fill="#BBBBBB"/><path d="M4.25822 6.99915C4.11561 6.99915 4 7.11278 4 7.25295V20.7501C4 20.8903 4.11561 21.0039 4.25822 21.0039H21.7457C21.8883 21.0039 22.0039 20.8903 22.0039 20.7501V10.2425L24 8.33345V20.375C24 21.7767 22.8439 23.0039 21.4178 23.0039H4.58216C3.15607 23.0039 2 21.7767 2 20.375V7.65126C2 6.24957 3.15607 5 4.58216 5H13.4783L11.5652 6.99915H4.25822Z" fill="#BBBBBB"/></svg>
