<svg width="29" height="28" viewBox="0 0 29 28" fill="none" xmlns="http://www.w3.org/2000/svg">
<path fill-rule="evenodd" clip-rule="evenodd" d="M6.9506 2.64262C7.1314 2.13468 7.67769 1.8739 8.17078 2.06014L22.4349 7.44784C22.928 7.63408 23.1811 8.19683 23.0003 8.70477C22.8195 9.21271 22.2732 9.47349 21.7802 9.28725L7.51605 3.89955C7.02296 3.71331 6.7698 3.15056 6.9506 2.64262Z" fill="#5A5A5A"/>
<path fill-rule="evenodd" clip-rule="evenodd" d="M14.6868 17.7757C14.6852 17.7745 14.6833 17.773 14.6813 17.7711C14.3045 17.4177 7.84341 4.85156 7.84341 4.85156L1 17.7757C2.65942 19.9111 5.12065 21.1012 7.84341 21.1012C10.6436 21.1012 12.9329 19.8728 14.6868 17.7757ZM3.41861 17.482L12.216 17.5176C12.216 17.5176 9.26815 11.9597 7.82127 9.16732L3.41861 17.482Z" fill="#5A5A5A"/>
<path fill-rule="evenodd" clip-rule="evenodd" d="M27.6868 22.9241C27.6852 22.9229 27.6833 22.9214 27.6813 22.9195C27.3045 22.5661 20.8434 10 20.8434 10L14 22.9241C15.6594 25.0595 18.1207 26.2496 20.8434 26.2496C23.6436 26.2496 25.9329 25.0213 27.6868 22.9241ZM16.4186 22.6304L25.216 22.666C25.216 22.666 22.2681 17.1082 20.8213 14.3158L16.4186 22.6304Z" fill="#5A5A5A"/>
</svg>
