<svg width="29" height="28" viewBox="0 0 29 28" fill="none" xmlns="http://www.w3.org/2000/svg">
<path fill-rule="evenodd" clip-rule="evenodd" d="M28 2H22.4473L21.5762 5.13043H1L3.83912 16.6087H18.3822L17.8015 18.6957H3.60935V20.7826H19.6152L24.261 4.08696H28V2ZM18.9629 14.5217H5.7025L3.89579 7.21739H20.9955L18.9629 14.5217ZM19.8698 23.913C19.8698 22.7602 18.83 21.8261 17.5469 21.8261C16.2637 21.8261 15.2239 22.7602 15.2239 23.913C15.2239 25.0659 16.2637 26 17.5469 26C18.83 26 19.8698 25.0659 19.8698 23.913ZM8.25519 23.913C8.25519 22.7602 7.21543 21.8261 5.93227 21.8261C4.64911 21.8261 3.60935 22.7602 3.60935 23.913C3.60935 25.0659 4.64911 26 5.93227 26C7.21543 26 8.25519 25.0659 8.25519 23.913Z" fill="#5A5A5A"/>
</svg>
