<svg width="29" height="28" viewBox="0 0 29 28" fill="none" xmlns="http://www.w3.org/2000/svg">
<path fill-rule="evenodd" clip-rule="evenodd" d="M9.53836 5.05464C6.80584 7.79415 6.80584 12.2358 9.53836 14.9753C9.74648 15.184 9.96444 15.3767 10.1908 15.5536C8.53505 15.988 7.03656 16.6678 5.78546 17.5403C3.51656 19.1227 2 21.3941 2 24.0001C2 24.5523 2.46636 25 3.04164 25C3.61693 25 4.08329 24.5523 4.08329 24.0001C4.08329 22.1925 5.13177 20.4682 7.00997 19.1582C8.78855 17.9178 11.2562 17.0981 14.0352 17.0155C14.3383 17.035 14.6424 17.0348 14.9455 17.0149C17.7323 17.0943 20.2073 17.9149 21.99 19.1582C23.8682 20.4682 24.9167 22.1925 24.9167 24.0001C24.9167 24.5523 25.3831 25 25.9584 25C26.5336 25 27 24.5523 27 24.0001C27 21.3941 25.4834 19.1227 23.2145 17.5403C21.9582 16.6641 20.4523 15.9823 18.7883 15.5481C19.0121 15.3727 19.2277 15.1818 19.4337 14.9753C22.1662 12.2358 22.1662 7.79415 19.4337 5.05464C16.7012 2.31512 12.2709 2.31512 9.53836 5.05464ZM10.9791 13.5308C9.04233 11.5891 9.04233 8.44086 10.9791 6.49911C12.9159 4.55734 16.0561 4.55735 17.9929 6.49911C19.9297 8.44087 19.9297 11.5891 17.9929 13.5308C16.0561 15.4726 12.9159 15.4726 10.9791 13.5308Z" fill="#5A5A5A"/>
</svg>
