<svg width="29" height="28" viewBox="0 0 29 28" fill="none" xmlns="http://www.w3.org/2000/svg">
<path fill-rule="evenodd" clip-rule="evenodd" d="M19.3256 5.80177C15.5909 2.06608 9.53586 2.06608 5.80115 5.80177C2.06628 9.5376 2.06628 15.5947 5.80115 19.3305C9.53586 23.0662 15.5909 23.0662 19.3256 19.3305C23.0605 15.5947 23.0605 9.5376 19.3256 5.80177ZM4.38675 4.38774C8.90255 -0.129246 16.2242 -0.129246 20.74 4.38774C25.0166 8.66541 25.243 15.4601 21.4194 20.0043L26.7067 25.293C27.0972 25.6836 27.0971 26.3167 26.7065 26.7072C26.3159 27.0977 25.6828 27.0976 25.2923 26.707L20.0058 21.4191C15.4626 25.2491 8.66529 25.0242 4.38675 20.7446C-0.128916 16.2277 -0.128916 8.90458 4.38675 4.38774Z" fill="#5A5A5A"/>
</svg>
