<svg width="44" height="44" viewBox="0 0 44 44" fill="none" xmlns="http://www.w3.org/2000/svg">
<path fill-rule="evenodd" clip-rule="evenodd" d="M12.9299 0.132C15.2766 0.02444 16.0246 0 22 0C27.9766 0 28.7234 0.02566 31.0688 0.132C33.4118 0.23834 35.0118 0.61112 36.4112 1.155C37.879 1.70762 39.2086 2.57348 40.3076 3.69234C41.4266 4.7912 42.2926 6.12092 42.845 7.58878C43.3888 8.98822 43.7604 10.5881 43.868 12.9299C43.9756 15.2766 44 16.0246 44 22C44 27.9754 43.9744 28.7234 43.868 31.0702C43.7616 33.4118 43.3888 35.0118 42.845 36.4112C42.2828 37.8572 41.5298 39.0854 40.3076 40.3076C39.2088 41.4266 37.879 42.2926 36.4112 42.845C35.0118 43.3888 33.4118 43.7604 31.0702 43.868C28.7234 43.9756 27.9754 44 22 44C16.0246 44 15.2766 43.9744 12.9299 43.868C10.5881 43.7616 8.98822 43.3888 7.58878 42.845C6.14288 42.2828 4.91456 41.5298 3.69234 40.3076C2.57328 39.2088 1.70736 37.879 1.155 36.4112C0.61112 35.0118 0.23956 33.4118 0.132 31.0702C0.02444 28.7234 0 27.9766 0 22C0 16.0233 0.02566 15.2766 0.132 12.9311C0.23834 10.5881 0.61112 8.98822 1.155 7.58878C1.70762 6.12102 2.57348 4.79136 3.69234 3.69234C4.79118 2.57328 6.1209 1.70736 7.58878 1.155C8.98822 0.61112 10.5881 0.23956 12.9299 0.132ZM30.8904 4.092C28.5706 3.98688 27.874 3.96366 22 3.96366C16.126 3.96366 15.4293 3.98688 13.1096 4.092C10.9646 4.18978 9.79978 4.54788 9.02488 4.84978C7.99822 5.24822 7.26488 5.72488 6.49488 6.49488C5.72612 7.26488 5.24822 7.99822 4.84978 9.02488C4.54788 9.79978 4.18978 10.9646 4.092 13.1096C3.98688 15.4293 3.96366 16.126 3.96366 22C3.96366 27.874 3.98688 28.5706 4.092 30.8904C4.18978 33.0354 4.54788 34.2002 4.84978 34.9752C5.20222 35.9308 5.76438 36.7952 6.49488 37.5052C7.20468 38.2356 8.06922 38.7978 9.02488 39.1502C9.79978 39.4522 10.9646 39.8102 13.1096 39.908C15.4293 40.0132 16.1248 40.0364 22 40.0364C27.8752 40.0364 28.5706 40.0132 30.8904 39.908C33.0354 39.8102 34.2002 39.4522 34.9752 39.1502C36.0018 38.7518 36.7352 38.2752 37.5052 37.5052C38.2356 36.7954 38.7978 35.9308 39.1502 34.9752C39.4522 34.2002 39.8102 33.0354 39.908 30.8904C40.0132 28.5706 40.0364 27.874 40.0364 22C40.0364 16.126 40.0132 15.4293 39.908 13.1096C39.8102 10.9646 39.4522 9.79978 39.1502 9.02488C38.7518 7.99822 38.2752 7.26488 37.5052 6.49488C36.7352 5.72612 36.0018 5.24822 34.9752 4.84978C34.2002 4.54788 33.0354 4.18978 30.8904 4.092ZM19.191 28.7818C20.0816 29.1508 21.036 29.3406 22 29.3406C23.947 29.3406 25.814 28.5672 27.1906 27.1906C28.5674 25.814 29.3408 23.9468 29.3408 22C29.3408 20.0532 28.5674 18.186 27.1906 16.8094C25.814 15.4327 23.947 14.6593 22 14.6593C21.036 14.6593 20.0816 14.8492 19.191 15.2181C18.3002 15.587 17.4911 16.1277 16.8094 16.8094C16.1278 17.491 15.5871 18.3002 15.2182 19.1908C14.8493 20.0814 14.6594 21.036 14.6594 22C14.6594 22.964 14.8493 23.9186 15.2182 24.8092C15.5871 25.6998 16.1278 26.509 16.8094 27.1906C17.4911 27.8722 18.3002 28.413 19.191 28.7818ZM14.0041 14.004C16.1248 11.8834 19.001 10.692 22 10.692C24.9992 10.692 27.8754 11.8834 29.996 14.004C32.1166 16.1247 33.308 19.001 33.308 22C33.308 24.999 32.1166 27.8752 29.996 29.996C27.8754 32.1166 24.9992 33.308 22 33.308C19.001 33.308 16.1248 32.1166 14.0041 29.996C11.8834 27.8752 10.6921 24.999 10.6921 22C10.6921 19.001 11.8834 16.1247 14.0041 14.004ZM35.8154 12.3768C36.3166 11.8755 36.5982 11.1956 36.5982 10.4867C36.5982 9.77772 36.3166 9.09784 35.8154 8.59656C35.314 8.09528 34.6342 7.81366 33.9252 7.81366C33.2164 7.81366 32.5364 8.09528 32.0352 8.59656C31.5338 9.09784 31.2522 9.77772 31.2522 10.4867C31.2522 11.1956 31.5338 11.8755 32.0352 12.3768C32.5364 12.878 33.2164 13.1597 33.9252 13.1597C34.6342 13.1597 35.314 12.878 35.8154 12.3768Z" fill="#085DDC"/>
</svg>
