<svg width="29" height="28" viewBox="0 0 29 28" fill="none" xmlns="http://www.w3.org/2000/svg">
<path d="M2 9.65045C2 11.4125 2.68328 13.1034 3.90142 14.3558C7.35101 17.8703 14.5001 25 14.5001 25C14.5001 25 21.649 17.8703 25.0986 14.3558C26.3168 13.1034 27 11.4125 27 9.65045C27 7.88841 26.3168 6.19753 25.0986 4.94512C23.871 3.69949 22.208 3 20.4742 3C18.7405 3 17.0775 3.69949 15.8498 4.94512L14.5001 6.31857L13.1502 4.94512C11.9225 3.69949 10.2595 3 8.52581 3C6.79207 3 5.12908 3.69949 3.90142 4.94512C2.68328 6.19753 2 7.88841 2 9.65045Z" fill="#5A5A5A"/>
</svg>
