<svg width="44" height="44" viewBox="0 0 44 44" fill="none" xmlns="http://www.w3.org/2000/svg">
<path fill-rule="evenodd" clip-rule="evenodd" d="M44 22C44 34.1502 34.1502 44 22 44C9.84973 44 0 34.1502 0 22C0 9.84973 9.84973 0 22 0C34.1502 0 44 9.84973 44 22ZM22.7883 16.2414C20.6487 17.1314 16.3719 18.9735 9.9585 21.7677C8.91706 22.1819 8.37151 22.587 8.32185 22.9832C8.2379 23.6528 9.07634 23.9164 10.2181 24.2754C10.3734 24.3243 10.5343 24.3749 10.6993 24.4284C11.8225 24.7936 13.3335 25.2208 14.1191 25.2377C14.8316 25.2531 15.6269 24.9594 16.5049 24.3564C22.4972 20.3115 25.5904 18.267 25.7845 18.2229C25.9217 18.1918 26.1114 18.1527 26.2401 18.2671C26.3687 18.3814 26.3562 18.5979 26.3424 18.656C26.2594 19.01 22.9682 22.0699 21.265 23.6533C20.7341 24.1468 20.3575 24.497 20.2805 24.5769C20.108 24.7562 19.9322 24.9256 19.7633 25.0884C18.7198 26.0944 17.9372 26.8488 19.8066 28.0808C20.7051 28.6728 21.424 29.1623 22.1412 29.6507C22.9244 30.1842 23.7055 30.7162 24.7163 31.3788C24.9739 31.5476 25.2197 31.7229 25.4593 31.8936C26.3708 32.5435 27.1898 33.1272 28.2014 33.0341C28.7894 32.98 29.3966 32.4273 29.705 30.7787C30.4337 26.8825 31.8663 18.4406 32.1974 14.9618C32.2265 14.657 32.19 14.2669 32.1607 14.0957C32.1314 13.9245 32.0701 13.6805 31.8476 13.4999C31.5839 13.2861 31.1771 13.241 30.9951 13.2441C30.1675 13.2587 28.8981 13.7002 22.7883 16.2414Z" fill="#085DDC"/>
</svg>
