<svg width="930" height="930" viewBox="0 0 930 930" fill="none" xmlns="http://www.w3.org/2000/svg">
<path fill-rule="evenodd" clip-rule="evenodd" d="M359.551 747.483C359.277 746.761 358.953 746.059 358.579 745.384C357.314 739.984 354.262 735.169 349.917 731.722C345.572 728.274 340.189 726.396 334.642 726.393C328.629 726.396 322.825 728.602 318.327 732.593C313.829 736.584 310.948 742.084 310.228 748.054C309.293 749.301 308.514 750.693 307.947 752.236L265.04 868.657C264.704 869.584 264.45 870.538 264.282 871.509C263.875 868.037 262.366 864.787 259.975 862.237L204.351 802.92L252.277 754.989C255.352 751.911 257.08 747.738 257.08 743.387C257.08 739.036 255.352 734.863 252.277 731.785C249.199 728.711 245.027 726.984 240.677 726.984C236.327 726.984 232.155 728.711 229.078 731.785L171.537 789.32V743.176C171.537 738.825 169.808 734.652 166.731 731.575C163.654 728.498 159.481 726.769 155.13 726.769C150.778 726.769 146.605 728.498 143.528 731.575C140.451 734.652 138.723 738.825 138.723 743.176V872.725C138.723 877.076 140.451 881.249 143.528 884.326C146.605 887.403 150.778 889.132 155.13 889.132C159.481 889.132 163.654 887.403 166.731 884.326C169.808 881.249 171.537 877.076 171.537 872.725V815.88L236.033 884.672C237.506 886.244 239.275 887.511 241.237 888.4C243.2 889.289 245.318 889.782 247.472 889.852C249.625 889.922 251.771 889.567 253.787 888.807C255.803 888.048 257.65 886.899 259.222 885.426C261.815 882.991 263.543 879.778 264.146 876.273C264.579 879.932 266.232 883.34 268.838 885.945C271.445 888.55 274.853 890.201 278.513 890.631C282.173 891.062 285.871 890.246 289.011 888.317C292.15 886.388 294.548 883.457 295.818 879.997L303.61 858.865H365.717L373.966 881.197C375.474 885.278 378.542 888.594 382.495 890.413C386.448 892.232 390.961 892.407 395.043 890.898C399.124 889.389 402.439 886.321 404.258 882.369C406.078 878.416 406.252 873.902 404.744 869.821L359.551 747.483ZM315.703 826.051L333.728 777.149C334.035 777.159 334.331 777.191 334.637 777.191C334.939 777.191 335.224 777.159 335.526 777.149L353.592 826.051H315.703ZM429.034 726.663C426.879 726.663 424.746 727.087 422.756 727.911C420.766 728.736 418.957 729.944 417.434 731.467C415.911 732.991 414.702 734.799 413.878 736.789C413.053 738.78 412.629 740.913 412.629 743.067V874.008C412.629 878.359 414.358 882.532 417.435 885.609C420.512 888.686 424.685 890.415 429.036 890.415C433.388 890.415 437.561 888.686 440.638 885.609C443.715 882.532 445.443 878.359 445.443 874.008V743.067C445.441 738.716 443.711 734.545 440.634 731.469C437.557 728.393 433.385 726.664 429.034 726.663ZM517.316 788.837C496.029 783.227 493.707 780.863 493.707 773.996C493.707 769.29 495.462 766.214 499.571 763.7C508.532 758.23 524.417 758.495 535.772 764.308C539.628 766.139 544.046 766.396 548.088 765.024C552.131 763.653 555.48 760.76 557.425 756.961C559.37 753.161 559.759 748.753 558.509 744.672C557.259 740.591 554.468 737.157 550.728 735.099C529.181 724.06 501.104 724.315 482.455 735.707C468.554 744.21 460.897 757.804 460.897 773.996C460.897 789.05 467.282 801.226 479.349 809.21C488.289 815.117 498.797 817.885 508.953 820.566C531.944 826.623 535.98 829.615 535.98 840.575C535.98 850.57 532.245 853.998 528.999 855.873C517.695 862.377 495.353 858.523 482.377 850.996C480.514 849.914 478.456 849.21 476.321 848.924C474.186 848.637 472.016 848.774 469.933 849.327C467.851 849.88 465.898 850.837 464.186 852.144C462.474 853.451 461.036 855.083 459.955 856.946C458.873 858.809 458.169 860.867 457.883 863.002C457.596 865.137 457.733 867.308 458.286 869.39C458.838 871.472 459.796 873.425 461.103 875.137C462.41 876.849 464.042 878.287 465.905 879.369C487.702 892.012 521.991 897.773 545.367 884.309C560.473 875.603 568.795 860.071 568.795 840.57C568.805 802.4 536.572 793.907 517.316 788.837ZM659.674 856.019H616.279V823.21H653.675C658.025 823.21 662.198 821.481 665.274 818.405C668.351 815.328 670.079 811.156 670.079 806.805C670.079 802.454 668.351 798.282 665.274 795.205C662.198 792.129 658.025 790.401 653.675 790.401H616.279V759.487H656.833C661.185 759.487 665.359 757.759 668.436 754.681C671.514 751.604 673.243 747.43 673.243 743.078C673.243 738.726 671.514 734.552 668.436 731.474C665.359 728.397 661.185 726.668 656.833 726.668H599.874C595.523 726.668 591.351 728.396 588.274 731.473C585.198 734.549 583.469 738.722 583.469 743.072V872.439C583.469 876.79 585.198 880.962 588.274 884.039C591.351 887.115 595.523 888.844 599.874 888.844H659.674C664.027 888.844 668.202 887.114 671.28 884.037C674.357 880.959 676.087 876.784 676.087 872.431C676.087 868.078 674.357 863.904 671.28 860.826C668.202 857.748 664.027 856.019 659.674 856.019ZM794.672 863.478L763.239 825.921C784.262 819.225 796.599 802.639 796.599 779.362C796.599 740.969 764.091 726.663 743.598 726.663H701.319C696.969 726.663 692.796 728.391 689.72 731.467C686.643 734.544 684.915 738.717 684.915 743.067V874.325C684.915 878.675 686.643 882.848 689.72 885.924C692.796 889.001 696.969 890.729 701.319 890.729C705.67 890.729 709.843 889.001 712.919 885.924C715.996 882.848 717.724 878.675 717.724 874.325V829.204H723.204L769.509 884.537C770.892 886.189 772.586 887.553 774.496 888.55C776.406 889.548 778.493 890.159 780.639 890.35C782.786 890.54 784.948 890.306 787.004 889.661C789.059 889.016 790.968 887.972 792.62 886.589C794.272 885.206 795.636 883.512 796.633 881.602C797.63 879.692 798.242 877.605 798.432 875.459C798.623 873.313 798.389 871.15 797.743 869.094C797.098 867.039 796.054 865.13 794.672 863.478ZM763.785 779.362C763.785 785.315 763.785 796.395 740.44 796.395H717.724V759.487H743.593C744.419 759.482 763.785 759.799 763.785 779.362Z" fill="#CF432A"/>
<path fill-rule="evenodd" clip-rule="evenodd" d="M131.508 507.383V645.58C131.508 678.685 158.348 705.531 191.454 705.531C224.559 705.531 251.399 678.685 251.399 645.58V507.383C251.399 474.278 224.559 447.437 191.454 447.437C158.348 447.437 131.508 474.278 131.508 507.383ZM267.046 507.383V645.58C267.046 678.685 293.886 705.531 326.991 705.531C360.102 705.531 386.942 678.685 386.942 645.58V507.383C386.942 474.278 360.102 447.437 326.991 447.437C293.886 447.442 267.046 474.278 267.046 507.383ZM402.583 507.383V645.58C402.583 678.685 429.424 705.531 462.529 705.531C495.634 705.531 522.48 678.685 522.48 645.58V507.383C522.48 474.278 495.634 447.437 462.529 447.437C429.424 447.442 402.583 474.278 402.583 507.383ZM538.126 507.383V645.58C538.126 678.685 564.962 705.531 598.067 705.531C631.182 705.531 658.018 678.685 658.018 645.58V507.383C658.018 474.278 631.182 447.437 598.067 447.437C564.962 447.442 538.126 474.278 538.126 507.383ZM673.664 507.383V645.58C673.664 678.685 700.499 705.531 733.605 705.531C766.72 705.531 793.556 678.685 793.556 645.58V507.383C793.556 474.278 766.72 447.437 733.605 447.437C700.499 447.442 673.664 474.278 673.664 507.383ZM192.222 428.861C225.411 428.861 252.308 401.958 252.308 368.775C252.308 335.592 225.406 308.689 192.222 308.689C159.039 308.689 132.136 335.592 132.136 368.775C132.131 401.958 159.034 428.861 192.222 428.861ZM464.939 428.861C498.123 428.861 525.031 401.958 525.031 368.775C525.031 335.592 498.123 308.689 464.939 308.689C431.756 308.689 404.853 335.592 404.853 368.775C404.848 401.958 431.756 428.861 464.939 428.861ZM735.179 428.861C768.367 428.861 795.27 401.958 795.27 368.775C795.27 335.592 768.362 308.689 735.179 308.689C702.001 308.689 675.098 335.592 675.098 368.775C675.092 401.958 702.001 428.861 735.179 428.861ZM598.877 292.56C632.066 292.56 658.968 265.657 658.968 232.474C658.968 199.291 632.06 172.388 598.877 172.388C565.694 172.388 538.796 199.291 538.796 232.474C538.796 265.657 565.694 292.56 598.877 292.56ZM464.477 158.154C497.665 158.154 524.563 131.252 524.563 98.0685C524.563 64.8853 497.665 37.9824 464.477 37.9824C431.289 37.9824 404.391 64.8853 404.391 98.0685C404.391 131.252 431.289 158.154 464.477 158.154ZM328.176 294.456C361.364 294.456 388.262 267.553 388.262 234.37C388.262 201.187 361.359 174.284 328.176 174.284C294.993 174.284 268.09 201.187 268.09 234.37C268.09 267.553 294.987 294.456 328.176 294.456ZM131.788 98.0685C131.788 64.8801 158.691 37.9824 191.874 37.9824C225.058 37.9824 251.96 64.8853 251.96 98.0685C251.96 131.252 225.058 158.154 191.874 158.154C158.691 158.154 131.788 131.252 131.788 98.0685ZM191.874 145.106C204.351 145.106 216.316 140.149 225.138 131.327C233.961 122.505 238.917 110.54 238.917 98.0633C238.917 85.5868 233.961 73.6214 225.138 64.7993C216.316 55.9771 204.351 51.0209 191.874 51.0209C179.398 51.0209 167.433 55.9771 158.61 64.7993C149.788 73.6214 144.832 85.5868 144.832 98.0633C144.832 110.54 149.788 122.505 158.61 131.327C167.433 140.149 179.398 145.106 191.874 145.106ZM266.827 98.0685C266.827 64.8801 293.73 37.9824 326.913 37.9824C360.097 37.9824 386.999 64.8853 386.999 98.0685C386.999 131.252 360.097 158.154 326.913 158.154C293.73 158.154 266.827 131.252 266.827 98.0685ZM326.913 145.106C339.39 145.106 351.355 140.149 360.177 131.327C369 122.505 373.956 110.54 373.956 98.0633C373.956 85.5868 369 73.6214 360.177 64.7993C351.355 55.9771 339.39 51.0209 326.913 51.0209C314.437 51.0209 302.472 55.9771 293.649 64.7993C284.827 73.6214 279.871 85.5868 279.871 98.0633C279.871 110.54 284.827 122.505 293.649 131.327C302.472 140.149 314.437 145.106 326.913 145.106ZM538.453 98.0685C538.453 64.8801 565.351 37.9824 598.534 37.9824C631.717 37.9824 658.626 64.8853 658.626 98.0685C658.626 131.252 631.717 158.154 598.534 158.154C565.351 158.154 538.453 131.252 538.453 98.0685ZM598.534 145.106C611.011 145.107 622.977 140.152 631.8 131.331C640.623 122.51 645.581 110.545 645.582 98.0685C645.583 85.592 640.628 73.6261 631.807 64.803C622.986 55.9798 611.021 51.0223 598.545 51.0209C592.367 51.0202 586.25 52.2363 580.542 54.5998C574.834 56.9633 569.648 60.4278 565.279 64.7956C556.456 73.6168 551.499 85.5817 551.497 98.0581C551.496 110.534 556.451 122.5 565.272 131.324C574.093 140.147 586.058 145.104 598.534 145.106ZM675.207 98.0685C675.207 64.8801 702.115 37.9824 735.288 37.9824C768.476 37.9824 795.379 64.8853 795.379 98.0685C795.379 131.252 768.471 158.154 735.288 158.154C702.11 158.154 675.207 131.252 675.207 98.0685ZM735.288 145.106C747.764 145.107 759.73 140.152 768.553 131.331C777.376 122.51 782.334 110.545 782.335 98.0685C782.337 85.592 777.382 73.6261 768.56 64.803C759.739 55.9798 747.774 51.0223 735.298 51.0209C729.12 51.0202 723.003 52.2363 717.295 54.5998C711.588 56.9633 706.401 60.4278 702.032 64.7956C693.209 73.6168 688.252 85.5817 688.25 98.0581C688.249 110.534 693.204 122.5 702.025 131.324C710.846 140.147 722.811 145.104 735.288 145.106ZM540.682 370.666C540.682 337.478 567.59 310.58 600.773 310.58C633.956 310.58 660.854 337.483 660.854 370.666C660.854 403.849 633.956 430.752 600.773 430.752C567.59 430.752 540.682 403.854 540.682 370.666ZM600.778 417.708C626.762 417.708 647.816 396.649 647.816 370.666C647.816 344.683 626.762 323.624 600.778 323.624C588.302 323.624 576.337 328.58 567.514 337.402C558.692 346.224 553.736 358.19 553.736 370.666C553.736 383.142 558.692 395.108 567.514 403.93C576.337 412.752 588.302 417.708 600.778 417.708ZM268.09 370.666C268.09 337.478 294.993 310.58 328.176 310.58C361.364 310.58 388.262 337.483 388.262 370.666C388.262 403.849 361.359 430.752 328.176 430.752C294.987 430.757 268.09 403.854 268.09 370.666ZM328.176 417.708C354.159 417.708 375.218 396.649 375.218 370.666C375.218 344.683 354.159 323.624 328.176 323.624C315.699 323.624 303.734 328.58 294.912 337.402C286.09 346.224 281.133 358.19 281.133 370.666C281.133 383.142 286.09 395.108 294.912 403.93C303.734 412.752 315.699 417.708 328.176 417.708ZM131.788 233.102C131.788 199.919 158.691 173.016 191.874 173.016C225.058 173.016 251.96 199.919 251.96 233.102C251.96 266.285 225.058 293.188 191.874 293.188C158.691 293.188 131.788 266.291 131.788 233.102ZM191.874 280.145C198.094 280.21 204.265 279.041 210.03 276.706C215.795 274.37 221.039 270.915 225.46 266.54C229.881 262.165 233.391 256.956 235.786 251.216C238.181 245.475 239.414 239.317 239.414 233.097C239.413 226.877 238.18 220.719 235.784 214.979C233.388 209.239 229.878 204.031 225.457 199.656C221.035 195.281 215.79 191.826 210.025 189.492C204.26 187.157 198.089 185.989 191.869 186.055C179.478 186.186 167.638 191.2 158.922 200.009C150.206 208.818 145.318 220.71 145.319 233.102C145.319 245.494 150.209 257.386 158.926 266.194C167.643 275.002 179.483 280.015 191.874 280.145ZM404.386 233.102C404.386 199.919 431.289 173.016 464.472 173.016C497.66 173.016 524.558 199.919 524.558 233.102C524.558 266.285 497.66 293.188 464.472 293.188C431.289 293.194 404.386 266.291 404.386 233.102ZM464.477 280.145C470.655 280.144 476.772 278.926 482.48 276.561C488.187 274.195 493.373 270.729 497.741 266.36C502.108 261.991 505.573 256.804 507.936 251.096C510.299 245.388 511.515 239.27 511.514 233.092C511.513 226.914 510.295 220.797 507.93 215.089C505.565 209.382 502.099 204.196 497.73 199.828C493.36 195.461 488.174 191.996 482.465 189.633C476.757 187.27 470.64 186.054 464.461 186.055C451.984 186.057 440.019 191.015 431.198 199.839C422.377 208.664 417.422 220.63 417.424 233.107C417.426 245.585 422.385 257.55 431.209 266.371C440.033 275.192 452 280.147 464.477 280.145ZM674.464 233.102C674.464 199.919 701.362 173.016 734.545 173.016C767.728 173.016 794.636 199.919 794.636 233.102C794.636 266.285 767.728 293.188 734.545 293.188C701.362 293.188 674.464 266.291 674.464 233.102ZM734.55 280.145C747.028 280.145 758.995 275.188 767.818 266.365C776.641 257.542 781.598 245.575 781.598 233.097C781.598 220.619 776.641 208.653 767.818 199.829C758.995 191.006 747.028 186.05 734.55 186.05C722.072 186.05 710.105 191.006 701.282 199.829C692.459 208.653 687.502 220.619 687.502 233.097C687.502 245.575 692.459 257.542 701.282 266.365C710.105 275.188 722.072 280.145 734.55 280.145Z" fill="#215DA0"/>
</svg>
