<?xml version="1.0" encoding="utf-8"?>
<!-- Generator: Adobe Illustrator 16.0.0, SVG Export Plug-In . SVG Version: 6.00 Build 0)  -->
<!DOCTYPE svg PUBLIC "-//W3C//DTD SVG 1.1//EN" "http://www.w3.org/Graphics/SVG/1.1/DTD/svg11.dtd">
<svg version="1.1" id="Capa_1" xmlns="http://www.w3.org/2000/svg" xmlns:xlink="http://www.w3.org/1999/xlink" x="0px" y="0px"
	 width="261.364px" height="261.362px" viewBox="0 0 261.364 261.362" enable-background="new 0 0 261.364 261.362"
	 xml:space="preserve">
<g>
	<polygon fill="#CC022E" points="261.364,261.362 0,261.362 0,0 261.364,0 261.364,261.362 	"/>
	<g>
		<path fill="#FFFFFF" d="M89.814,85.043c0,9.456-7.661,17.124-17.117,17.124c-9.478,0-17.131-7.668-17.131-17.124
			c0-9.452,7.653-17.128,17.131-17.128C82.153,67.915,89.814,75.591,89.814,85.043L89.814,85.043z"/>
		<polygon fill="#FFFFFF" points="216.526,104.228 213.877,117.468 71.993,117.468 58.753,171.358 46.203,171.358 59.449,117.468 
			41.636,117.468 44.285,104.228 216.526,104.228 		"/>
		<path fill="#FFFFFF" d="M115.783,145.743c-1.213-11.453-10.92-20.388-22.674-20.388c-12.579,0-22.803,10.241-22.803,22.821
			s10.224,22.811,22.803,22.811l15.523-0.047l2.398-11.57H92.937L115.783,145.743L115.783,145.743z M82.218,148.176
			c0-6.01,4.882-10.895,10.891-10.895c3.102,0,5.888,1.32,7.87,3.414l-18.194,10.83C82.454,150.463,82.218,149.354,82.218,148.176
			L82.218,148.176z"/>
		<polygon fill="#FFFFFF" points="165.024,125.98 148.661,125.98 133.913,141.6 137.129,125.98 124.959,125.98 115.625,171.342 
			127.803,171.342 131.694,152.42 147.764,171.342 163.415,171.342 143.907,148.387 165.024,125.98 		"/>
		<path fill="#FFFFFF" d="M199.293,125.98l-1.135,4.842c-4.057-3.546-9.348-5.693-15.127-5.693
			c-12.717,0-23.055,10.338-23.055,23.047c0,12.705,10.338,23.055,23.055,23.055v-0.021h17.971l10.533-45.229H199.293
			L199.293,125.98z M191.532,159.288h-8.516v0.018c-6.123-0.018-11.121-5.002-11.121-11.129c0-6.146,4.998-11.129,11.137-11.129
			c6.096,0,11.051,4.939,11.113,11.021L191.532,159.288L191.532,159.288z"/>
	</g>
</g>
</svg>
